<svg width="205" height="29" viewBox="0 0 205 29" fill="none" xmlns="http://www.w3.org/2000/svg">
<path d="M99.07 0.0299988H0V28.35H99.07V0.0299988Z" fill="white"/>
<path d="M94.61 20.36C94.4454 20.415 94.2735 20.4453 94.1 20.45C93.51 20.45 93.24 20.19 93.24 19.45V14.1C93.24 11.27 90.99 9.9 88.32 9.9C86.4806 9.86811 84.6591 10.2653 83 11.06L82.52 13.92L85.35 14.22L85.74 12.83C86.333 12.5386 86.9899 12.4011 87.65 12.43C89.65 12.43 89.65 13.94 89.65 15.2V15.62C88.9865 15.5396 88.3184 15.5028 87.65 15.51C84.82 15.51 81.89 16.22 81.89 19.27C81.8874 19.7305 81.9756 20.1869 82.1497 20.6132C82.3238 21.0395 82.5803 21.4273 82.9045 21.7543C83.2287 22.0813 83.6143 22.3411 84.0391 22.5188C84.4638 22.6965 84.9195 22.7887 85.38 22.79H85.7C86.5314 22.7895 87.3462 22.5572 88.0528 22.1191C88.7594 21.681 89.3299 21.0545 89.7 20.31C89.7157 20.9819 89.9972 21.6202 90.4826 22.0851C90.9681 22.5499 91.618 22.8034 92.29 22.79H92.43C93.2075 22.7804 93.9703 22.5776 94.65 22.2L94.61 20.36ZM87 20.29C86.6579 20.3324 86.3129 20.2372 86.041 20.0253C85.7691 19.8134 85.5925 19.5021 85.55 19.16C85.54 19.0569 85.54 18.9531 85.55 18.85C85.55 17.51 86.65 17.14 87.89 17.14C88.4895 17.1615 89.0872 17.2182 89.68 17.31C89.7115 17.6748 89.6703 18.0422 89.5588 18.391C89.4474 18.7397 89.2679 19.063 89.0308 19.3419C88.7937 19.6209 88.5036 19.8501 88.1773 20.0163C87.8511 20.1824 87.4951 20.2823 87.13 20.31L87 20.29ZM82.24 3.63L76.89 22.53H73.38L78.75 3.63H82.24ZM75.04 3.63L69.69 22.53H66.18L71.56 3.63H75.04ZM60.18 10.09H63.88V14.55H60.18V10.09ZM60.18 18.03H63.88V22.48H60.18V18.03ZM54.78 17.87L57.57 18.15L56.81 22.48H46L45.6 20.67L52.41 12.84H48.57L48 14.77L45.44 14.49L45.88 10.09H56.79L57.05 12L50.18 19.8H54.18L54.78 17.87ZM37 9.9C35.3544 9.7874 33.7314 10.3331 32.488 11.417C31.2447 12.501 30.4828 14.0344 30.37 15.68C30.35 15.9596 30.35 16.2404 30.37 16.52C30.37 20.47 33.01 22.81 36.84 22.81C40.67 22.81 43.65 20.31 43.65 16.35C43.706 15.4711 43.5706 14.5906 43.2534 13.7691C42.9361 12.9476 42.4445 12.2047 41.8123 11.5915C41.1802 10.9784 40.4226 10.5097 39.5918 10.2176C38.761 9.92561 37.8767 9.81724 37 9.9ZM36.91 20.09C35 20.09 34 18.44 34 16.29C34 14 35.18 12.62 37 12.62C38.82 12.62 40 13.79 40 16.24C40 18.69 38.77 20.09 36.93 20.09H36.91ZM27.16 19.84H28.81V22.53H23.62V15.53C23.62 13.39 22.91 12.53 21.51 12.53C19.81 12.53 19.17 13.7 19.17 15.46V19.78H20.82V22.5H15.58V15.5C15.58 13.36 14.87 12.5 13.47 12.5C11.76 12.5 11.13 13.66 11.13 15.43V19.74H13.47V22.43H5.84V19.77H7.53V12.77H5.84V10.09H11.07V12C11.4381 11.333 11.9851 10.7821 12.6494 10.4093C13.3137 10.0365 14.069 9.85665 14.83 9.89C15.6949 9.84045 16.5524 10.073 17.2738 10.5527C17.9951 11.0324 18.5412 11.7333 18.83 12.55C19.1374 11.7457 19.6878 11.0573 20.4048 10.5805C21.1217 10.1038 21.9694 9.86239 22.83 9.89C23.3555 9.85472 23.8828 9.92359 24.3817 10.0926C24.8805 10.2617 25.3411 10.5276 25.7369 10.8751C26.1327 11.2226 26.456 11.6448 26.6882 12.1176C26.9204 12.5904 27.0569 13.1043 27.09 13.63C27.1 13.8099 27.1 13.9901 27.09 14.17V19.88L27.16 19.84Z" fill="black"/>
<path d="M204 3.64H193L193.58 1.9C193.621 1.74334 193.641 1.58194 193.64 1.42C193.649 1.06289 193.519 0.716172 193.279 0.451773C193.039 0.187374 192.706 0.0255944 192.35 0L183.69 0L178.69 17H187.29C187.658 16.9909 188.016 17.1223 188.291 17.3674C188.566 17.6126 188.737 17.9532 188.77 18.32C188.779 18.5047 188.752 18.6894 188.69 18.8636C188.627 19.0377 188.531 19.1977 188.406 19.3344C188.282 19.471 188.131 19.5817 187.964 19.6599C187.796 19.7381 187.615 19.7823 187.43 19.79H185.63C185.447 19.79 185.265 19.8263 185.096 19.8968C184.926 19.9672 184.773 20.0705 184.644 20.2007C184.514 20.3308 184.412 20.4852 184.343 20.655C184.274 20.8248 184.239 21.0066 184.24 21.19C184.23 21.2797 184.23 21.3703 184.24 21.46C184.319 21.7743 184.503 22.0524 184.761 22.2486C185.019 22.4448 185.336 22.5476 185.66 22.54H198.73C198.776 22.5375 198.82 22.5208 198.856 22.4921C198.892 22.4634 198.918 22.4242 198.93 22.38L204.24 3.87C204.243 3.83808 204.239 3.8058 204.228 3.77565C204.217 3.74549 204.2 3.71826 204.176 3.69605C204.153 3.67384 204.125 3.65724 204.095 3.64752C204.064 3.63781 204.032 3.63523 204 3.64Z" fill="white"/>
<path d="M181.14 0.120004L173.14 28.18C173.132 28.2052 173.13 28.2319 173.135 28.258C173.139 28.284 173.149 28.3087 173.165 28.33C173.181 28.3514 173.201 28.3688 173.224 28.3809C173.248 28.3931 173.274 28.3996 173.3 28.4H175.59C175.628 28.4007 175.664 28.388 175.694 28.3642C175.723 28.3404 175.743 28.3071 175.75 28.27L183.75 0.210004C183.756 0.185422 183.756 0.159819 183.751 0.135062C183.746 0.110305 183.735 0.087017 183.72 0.0668967C183.705 0.0467763 183.685 0.0303305 183.663 0.0187582C183.64 0.00718584 183.615 0.000778668 183.59 3.78591e-06H181.3C181.264 -0.00114588 181.228 0.010112 181.199 0.0319238C181.17 0.0537355 181.149 0.0848006 181.14 0.120004Z" fill="white"/>
<path d="M117.26 22.55L113.5 15.32H111.09V19.23H113V22.55H105V19.23H106.8V6.93H105V3.6H113.58C118.27 3.6 120.89 5.53 120.89 9.35C120.916 10.4824 120.58 11.5934 119.931 12.5215C119.281 13.4496 118.353 14.1462 117.28 14.51L119.84 19.23H122.12V22.55H117.26ZM112.86 6.93H111.09V12.23H112.8C115.8 12.23 116.67 11.23 116.67 9.44C116.67 7.65 115.71 6.93 112.86 6.93Z" fill="white"/>
<path d="M130.74 7.5C133.92 7.5 136.6 9.13 136.6 12.5V18.35C136.6 19.2 136.93 19.35 137.6 19.35H138.23V22.52H135.58C133.58 22.52 132.53 21.71 132.34 19.94C131.895 20.8194 131.216 21.559 130.378 22.0777C129.54 22.5964 128.576 22.874 127.59 22.88C125.47 22.88 123.04 21.74 123.04 18.66C123.04 15.03 126.55 14.18 129.92 14.18C130.729 14.1718 131.537 14.2152 132.34 14.31V13.81C132.34 12.31 132.34 10.51 129.92 10.51C129.143 10.4556 128.365 10.6002 127.66 10.93L127.1 13.03L123.73 12.67L124.39 8.84C126.374 7.90636 128.548 7.44758 130.74 7.5ZM132.38 16.33C131.675 16.222 130.963 16.1586 130.25 16.14C128.75 16.14 127.44 16.56 127.44 18.14C127.414 18.3722 127.441 18.6074 127.519 18.8277C127.597 19.048 127.724 19.2476 127.891 19.4114C128.058 19.5753 128.259 19.699 128.481 19.7732C128.703 19.8475 128.938 19.8703 129.17 19.84C130.64 19.84 132.17 18.84 132.38 16.5V16.33Z" fill="white"/>
<path d="M138 22.55V19.38H140V3.24H137.87V0H144.22V19.38H146.22V22.55H138Z" fill="white"/>
<path d="M146.05 22.55V19.38H148.05V3.24H145.92V0H152.27V19.38H154.27V22.55H146.05Z" fill="white"/>
<path d="M169.24 11.07L164.53 22.59L163.53 25.14H165.45V28.4H157.35V25.14H159.69L160.46 22.82L155.32 11.07H153.82V7.92H161.31V11.07H159.84L162.84 17.84H163L165.21 11.07H164V7.92H170.71V11.07H169.24Z" fill="white"/>
</svg>
