
<svg width="233" height="162" viewBox="0 0 233 162" fill="none" xmlns="http://www.w3.org/2000/svg">
<path d="M109.972 65.4018C99.7374 65.4018 91.4063 57.0325 91.4063 46.7507C91.4063 36.4689 99.7374 28.0995 109.972 28.0995C120.207 28.0995 128.538 36.4689 128.538 46.7507C128.538 57.0325 120.207 65.4018 109.972 65.4018ZM109.972 33.2141C102.541 33.2141 96.4975 39.285 96.4975 46.7507C96.4975 54.2164 102.541 60.2872 109.972 60.2872C117.404 60.2872 123.447 54.2164 123.447 46.7507C123.438 39.285 117.395 33.2141 109.972 33.2141Z" fill="#54FFBD"/>
<path d="M6.05183 151.709C6.24396 151.508 6.44481 151.315 6.63693 151.113C6.08677 151.56 5.62393 152.095 5.25715 152.701C5.47547 152.42 5.68506 152.139 5.91211 151.876C5.94704 151.815 5.99944 151.762 6.05183 151.709Z" fill="#66FFCD"/>
<path d="M170.167 162C170.298 162 170.429 161.991 170.552 161.982H169.774C169.914 161.991 170.036 162 170.167 162Z" fill="#66FFCD"/>
<path d="M174.988 152.166C174.909 152.069 174.831 151.973 174.752 151.876C174.743 151.859 174.726 151.85 174.717 151.832C174.674 151.78 174.543 151.622 174.49 151.578C170.438 147.349 166.334 143.217 162.212 139.059C161.767 138.629 161.522 138.041 161.539 137.418C161.539 133.55 161.539 129.663 161.539 125.794V49.5492C161.539 45.8558 158.562 42.8643 154.885 42.8643H25.0544C21.3604 42.8643 18.3564 45.8734 18.3564 49.5931L19.0812 137.682C19.0375 138.234 18.793 138.752 18.3913 139.129C14.4528 143.103 10.5143 147.086 6.6282 151.122C6.43608 151.323 6.23522 151.516 6.0431 151.718C5.99071 151.771 5.94704 151.832 5.89464 151.885C5.66759 152.157 5.458 152.429 5.24842 152.71C5.24842 152.71 5.24842 152.718 5.23968 152.718C4.57599 153.815 4.24414 155.131 4.38387 156.534C4.71572 159.693 7.52768 162 10.689 162H170.543C173.722 161.798 176.245 159.149 176.245 155.903C176.254 154.49 175.783 153.201 174.988 152.166ZM107.003 155.912L74.0891 156.166C71.7313 156.184 70.5698 153.289 72.2814 151.657L74.2725 149.762C74.7528 149.306 75.3903 149.051 76.054 149.051H105.353C106.042 149.051 106.706 149.332 107.195 149.823L108.82 151.464C110.453 153.104 109.3 155.894 107.003 155.912ZM151.095 116.609C151.095 121.803 146.903 126.005 141.742 126.005H38.9221C33.7523 126.005 29.5693 121.794 29.5693 116.609V63.0068C29.5693 57.8133 33.761 53.6111 38.9221 53.6111H141.742C146.912 53.6111 151.095 57.8221 151.095 63.0068V116.609Z" fill="#090909"/>
<path d="M60.6231 126.005H39.9351V91.5099C39.9351 86.6848 43.83 82.7721 48.633 82.7721H51.9253C56.7283 82.7721 60.6231 86.6848 60.6231 91.5099V126.005Z" fill="#090909"/>
<path d="M87.232 126.005H66.544V76.8943C66.544 72.0692 70.4388 68.1565 75.2419 68.1565H78.5341C83.3372 68.1565 87.232 72.0692 87.232 76.8943V126.005Z" fill="#090909"/>
<path d="M113.841 126.005H93.1528V85.6584C93.1528 80.8333 97.0477 76.9206 101.851 76.9206H105.143C109.946 76.9206 113.841 80.8333 113.841 85.6584V126.005Z" fill="#090909"/>
<path d="M140.45 126.005H119.762V106.126C119.762 101.3 123.657 97.3877 128.46 97.3877H131.752C136.555 97.3877 140.45 101.3 140.45 106.126V126.005Z" fill="#090909"/>
<path d="M33.665 91.4397C15.099 91.4397 0 76.2714 0 57.6203C0 38.9691 15.099 23.8008 33.665 23.8008C52.2309 23.8008 67.3299 38.9691 67.3299 57.6203C67.3299 76.2714 52.2309 91.4397 33.665 91.4397ZM33.665 30.4858C18.7668 30.4858 6.6544 42.6625 6.6544 57.6203C6.6544 72.578 18.7755 84.7548 33.665 84.7548C48.5544 84.7548 60.6755 72.578 60.6755 57.6203C60.6755 42.6625 48.5631 30.4858 33.665 30.4858Z" fill="#54FFBD"/>
<path d="M123.395 119.443C110.418 119.443 99.8596 108.836 99.8596 95.7998C99.8596 82.7633 110.418 72.1569 123.395 72.1569C136.372 72.1569 146.929 82.7633 146.929 95.7998C146.929 108.836 136.372 119.443 123.395 119.443ZM123.395 79.4735C114.426 79.4735 107.134 86.7989 107.134 95.8086C107.134 104.818 114.426 112.144 123.395 112.144C132.363 112.144 139.655 104.818 139.655 95.8086C139.655 86.7989 132.354 79.4735 123.395 79.4735Z" fill="#54FFBD"/>
<path d="M104.558 87.5709L122.111 65.9106L98.0869 45.7944L127.971 38.0568L125.814 6.80775L151.069 27.231L166.159 0L178.175 29.705L211.439 16.3965L205.282 50.4353L233 54.7691L212.67 74.2624L226.223 91.9047L198.811 91.2818L201.588 110.468L173.861 99.0195L152.92 120.057V97.1596L140.598 109.845L136.904 90.0448L104.558 87.5709Z" fill="#FFCC0B"/>
<path d="M177.975 91.7029H153.112C149.252 91.7029 146.135 88.5622 146.135 84.6934V38.8375C146.135 34.9599 149.261 31.828 153.112 31.828H177.975C181.834 31.828 184.952 34.9687 184.952 38.8375V84.6934C184.961 88.5622 181.834 91.7029 177.975 91.7029Z" fill="#090909"/>
<path d="M180.516 39.3376H150.571V76.2363H180.516V39.3376Z" fill="white"/>
<path d="M165.548 88.2025C167.916 88.2025 169.836 86.274 169.836 83.8951C169.836 81.5161 167.916 79.5876 165.548 79.5876C163.18 79.5876 161.26 81.5161 161.26 83.8951C161.26 86.274 163.18 88.2025 165.548 88.2025Z" fill="white"/>
<path d="M165.443 71.1831C158.605 71.1831 153.042 65.5948 153.042 58.7257C153.042 51.8565 158.605 46.2682 165.443 46.2682C172.281 46.2682 177.844 51.8565 177.844 58.7257C177.844 65.5948 172.281 71.1831 165.443 71.1831ZM165.443 49.9265C160.614 49.9265 156.684 53.8743 156.684 58.7257C156.684 63.5771 160.614 67.5249 165.443 67.5249C170.272 67.5249 174.202 63.5771 174.202 58.7257C174.202 53.8743 170.272 49.9265 165.443 49.9265Z" fill="#54FFBD"/>
<path d="M165.548 62.2085C165.085 62.2085 164.613 62.033 164.255 61.6733L161.068 58.4712C160.361 57.7606 160.361 56.5938 161.068 55.8832C161.775 55.1726 162.937 55.1726 163.644 55.8832L165.539 57.787L173.495 49.7949C174.202 49.0843 175.363 49.0843 176.071 49.7949C176.778 50.5055 176.778 51.6723 176.071 52.3829L166.832 61.6733C166.482 62.0243 166.011 62.2085 165.548 62.2085Z" fill="black"/>
</svg>
